<svg id="Group_391" data-name="Group 391" xmlns="http://www.w3.org/2000/svg" width="106.007" height="106.007" viewBox="0 0 106.007 106.007">
  <g id="Path_230" data-name="Path 230" fill="#fff">
    <path d="M 53.00353622436523 104.507080078125 C 46.04993438720703 104.507080078125 39.30514907836914 103.1455383300781 32.95649337768555 100.4602966308594 C 26.82367897033691 97.86632537841797 21.31552124023438 94.15251922607422 16.58503532409668 89.42203521728516 C 11.85456466674805 84.69156646728516 8.140765190124512 79.18341064453125 5.546793460845947 73.05058288574219 C 2.861536264419556 66.70191955566406 1.500007629394531 59.95713806152344 1.500007629394531 53.00353622436523 C 1.500007629394531 46.04993438720703 2.861536264419556 39.30514907836914 5.546793460845947 32.95649337768555 C 8.140765190124512 26.82367897033691 11.85456466674805 21.31552124023438 16.58503532409668 16.58503532409668 C 21.31552124023438 11.85456466674805 26.82367897033691 8.140765190124512 32.95649337768555 5.546793460845947 C 39.30514907836914 2.861536264419556 46.04993438720703 1.500007629394531 53.00353622436523 1.500007629394531 C 59.95713806152344 1.500007629394531 66.70191955566406 2.861536264419556 73.05058288574219 5.546793460845947 C 79.18341064453125 8.140765190124512 84.69156646728516 11.85456466674805 89.42203521728516 16.58503532409668 C 94.15251922607422 21.31552124023438 97.86632537841797 26.82367897033691 100.4602966308594 32.95649337768555 C 103.1455383300781 39.30514907836914 104.507080078125 46.04993438720703 104.507080078125 53.00353622436523 C 104.507080078125 59.95713806152344 103.1455383300781 66.70191955566406 100.4602966308594 73.05058288574219 C 97.86632537841797 79.18341064453125 94.15251922607422 84.69156646728516 89.42203521728516 89.42203521728516 C 84.69156646728516 94.15251922607422 79.18341064453125 97.86632537841797 73.05058288574219 100.4602966308594 C 66.70191955566406 103.1455383300781 59.95713806152344 104.507080078125 53.00353622436523 104.507080078125 Z" stroke="none"/>
    <path d="M 53.00353622436523 3 C 46.25178527832031 3 39.70356750488281 4.321670532226563 33.54081726074219 6.928306579589844 C 27.58678436279297 9.446640014648438 22.23889923095703 13.05248260498047 17.64570617675781 17.64570617675781 C 13.05248260498047 22.23889923095703 9.446640014648438 27.58678436279297 6.928306579589844 33.54081726074219 C 4.321670532226563 39.70356750488281 3 46.25178527832031 3 53.00353622436523 C 3 59.75528717041016 4.321670532226563 66.30349731445313 6.928306579589844 72.46624755859375 C 9.446640014648438 78.4202880859375 13.05248260498047 83.76817321777344 17.64570617675781 88.36137390136719 C 22.23889923095703 92.95458984375 27.58678436279297 96.56044006347656 33.54081726074219 99.07876586914063 C 39.70356750488281 101.6854019165039 46.25178527832031 103.0070724487305 53.00353622436523 103.0070724487305 C 59.75528717041016 103.0070724487305 66.30349731445313 101.6854019165039 72.46624755859375 99.07876586914063 C 78.4202880859375 96.56044006347656 83.76817321777344 92.95458984375 88.36137390136719 88.36137390136719 C 92.95458984375 83.76817321777344 96.56044006347656 78.4202880859375 99.07876586914063 72.46624755859375 C 101.6854019165039 66.30349731445313 103.0070724487305 59.75528717041016 103.0070724487305 53.00353622436523 C 103.0070724487305 46.25178527832031 101.6854019165039 39.70356750488281 99.07876586914063 33.54081726074219 C 96.56044006347656 27.58678436279297 92.95458984375 22.23889923095703 88.36137390136719 17.64570617675781 C 83.76817321777344 13.05248260498047 78.4202880859375 9.446640014648438 72.46624755859375 6.928306579589844 C 66.30349731445313 4.321670532226563 59.75528717041016 3 53.00353622436523 3 M 53.00353622436523 0 C 82.27658843994141 0 106.0070724487305 23.73048400878906 106.0070724487305 53.00353622436523 C 106.0070724487305 82.27658843994141 82.27658843994141 106.0070724487305 53.00353622436523 106.0070724487305 C 23.73048400878906 106.0070724487305 0 82.27658843994141 0 53.00353622436523 C 0 23.73048400878906 23.73048400878906 0 53.00353622436523 0 Z" stroke="none" fill="#612cf1"/>
  </g>
  <g id="check-mark" transform="translate(27.049 30.719)">
    <g id="Group_390" data-name="Group 390" transform="translate(0 0)">
      <path id="Path_229" data-name="Path 229" d="M27.139,44.609a7.647,7.647,0,0,1-11.836.581L1.524,29.9a5.921,5.921,0,1,1,8.8-7.927l9.749,10.82a.72.72,0,0,0,1.114-.055L41.222,5.558a5.92,5.92,0,1,1,9.53,7.027Z" transform="translate(0 -3.15)" fill="#612cf1"/>
    </g>
  </g>
</svg>
