<svg id="email-icon" xmlns="http://www.w3.org/2000/svg" width="17.472" height="17.472" viewBox="0 0 17.472 17.472">
  <g id="Group_359" data-name="Group 359" transform="translate(7.235 7.166)">
    <g id="Group_358" data-name="Group 358">
      <path id="Path_207" data-name="Path 207" d="M213.536,210a1.536,1.536,0,1,0,1.536,1.536A1.537,1.537,0,0,0,213.536,210Z" transform="translate(-212 -210)" fill="#5222d0"/>
    </g>
  </g>
  <g id="Group_361" data-name="Group 361">
    <g id="Group_360" data-name="Group 360">
      <path id="Path_208" data-name="Path 208" d="M8.7,0a8.736,8.736,0,0,0,0,17.472,8.829,8.829,0,0,0,8.77-8.77A8.77,8.77,0,0,0,8.7,0Zm3.651,11.262a2.043,2.043,0,0,1-1.673-.873,2.561,2.561,0,1,1-.375-3.72V6.655a.512.512,0,1,1,1.024,0V9.214a1.024,1.024,0,1,0,2.048,0C13.377,5.788,11.11,4.1,8.77,4.1a4.607,4.607,0,0,0,0,9.214,4.558,4.558,0,0,0,2.8-.949.512.512,0,0,1,.624.812A5.576,5.576,0,0,1,8.77,14.333a5.631,5.631,0,0,1,0-11.262c2.829,0,5.631,2.086,5.631,6.143A2.05,2.05,0,0,1,12.354,11.262Z" transform="translate(0 0)" fill="#5222d0"/>
    </g>
  </g>
</svg>
