<svg xmlns="http://www.w3.org/2000/svg" width="180.798" height="41.758" viewBox="0 0 180.798 41.758">
  <g id="Group_368" data-name="Group 368" transform="translate(-145.202 -64.242)">
    <g id="Group_365" data-name="Group 365" transform="translate(84.276 -56)">
      <g id="Group_364" data-name="Group 364" transform="matrix(0.999, -0.035, 0.035, 0.999, 60.307, 121.114)">
        <path id="Path_213" data-name="Path 213" d="M19.758.28c11.519,1.7,18.623,8.048,18.623,14.739S27.424,24.711,17.35,24.711,0,18.283,0,11.592,8.24-1.418,19.758.28Z" transform="matrix(0.891, -0.454, 0.454, 0.891, 0, 17.746)" fill="#612cf1"/>
        <g id="curved-arrow" transform="translate(12.892 0) rotate(20)">
          <path id="Path_214" data-name="Path 214" d="M28.558,8.647c-1.114-2.8-2.938-5.224-3.8-8.18-.152-.475-.912-.686-1.114-.158-1.216,2.955-3.039,5.647-3.9,8.76-.152.58.608,1.161,1.013.633a26.657,26.657,0,0,1,2.026-2.164c-.1,4.538,0,9.077-.76,13.563-.405,2.428-.962,5.172-2.634,7.019-2.026,2.216-4.559.211-5.673-1.847-.962-1.794-2.634-9.552-5.977-6.86C5.763,21,5.256,23.16,4.649,25.534a7.677,7.677,0,0,1-.709,1.9C2.774,29.7,1.255,26.009,1.2,25.112a19.508,19.508,0,0,1,.81-5.383.419.419,0,0,0-.81-.211c-.912,2.48-2.178,6.7,0,8.866,1.925,1.847,3.546.633,4.306-1.53.507-1.425,2.431-9.341,4.66-5.647,1.469,2.427,1.874,5.33,3.647,7.6a4.524,4.524,0,0,0,5.319,1.161c2.128-1,3.039-3.958,3.6-6.069C24.1,18.621,24.1,12.922,23.948,7.486A19.353,19.353,0,0,0,27.9,9.65C28.457,9.808,28.761,9.069,28.558,8.647Zm-6.585-1.9c.659-1.478,1.469-2.955,2.178-4.433.76,1.847,1.722,3.483,2.634,5.277a8.6,8.6,0,0,0-3.242-1.636.507.507,0,0,0-.557.317A2,2,0,0,0,21.973,6.747Z" transform="translate(0 0)" fill="#fff"/>
        </g>
      </g>
      <text id="AIMSKY" transform="translate(104.724 154)" fill="#612cf1" font-size="33" font-family="Overpass-Black, Overpass" font-weight="800" letter-spacing="0.056em"><tspan x="0" y="0">AIMSKY</tspan></text>
      <g id="stars" transform="translate(76.275 129.256) rotate(5)">
        <path id="Path_216" data-name="Path 216" d="M3.955,1.942l-.611-.225A1.8,1.8,0,0,1,2.277.649L2.052.038a.058.058,0,0,0-.11,0L1.717.649A1.8,1.8,0,0,1,.649,1.717l-.611.225a.058.058,0,0,0,0,.11l.611.225A1.8,1.8,0,0,1,1.717,3.344l.225.611a.058.058,0,0,0,.11,0l.225-.611A1.8,1.8,0,0,1,3.344,2.277l.611-.225a.058.058,0,0,0,0-.11Z" transform="translate(1.149 2.085)" fill="#fff"/>
        <path id="Path_217" data-name="Path 217" d="M2.688,1.32l-.415-.153A1.225,1.225,0,0,1,1.548.441L1.394.026a.04.04,0,0,0-.075,0L1.167.441a1.224,1.224,0,0,1-.725.725L.026,1.32a.04.04,0,0,0,0,.075l.415.153a1.225,1.225,0,0,1,.725.725l.153.415a.04.04,0,0,0,.075,0l.153-.415a1.225,1.225,0,0,1,.725-.725l.415-.153a.04.04,0,0,0,0-.075Z" transform="translate(8.403 2.463)" fill="#fff"/>
        <path id="Path_218" data-name="Path 218" d="M1.875.921,1.585.814A.854.854,0,0,1,1.079.308L.973.018a.028.028,0,0,0-.052,0L.814.308A.854.854,0,0,1,.308.814L.018.921a.028.028,0,0,0,0,.052l.29.107a.854.854,0,0,1,.506.506l.107.29a.028.028,0,0,0,.052,0l.107-.29a.854.854,0,0,1,.506-.506l.29-.107a.028.028,0,0,0,0-.052Z" transform="translate(5.614 8.557)" fill="#fff"/>
        <path id="Path_219" data-name="Path 219" d="M1.875.921,1.585.814A.854.854,0,0,1,1.079.308L.973.018a.028.028,0,0,0-.052,0L.814.308A.854.854,0,0,1,.308.814L.018.921a.028.028,0,0,0,0,.052l.29.107a.854.854,0,0,1,.506.506l.107.29a.028.028,0,0,0,.052,0l.107-.29a.854.854,0,0,1,.506-.506l.29-.107a.028.028,0,0,0,0-.052Z" transform="translate(6.073)" fill="#fff"/>
        <path id="Path_220" data-name="Path 220" d="M2.358,1.158l-.364-.134A1.075,1.075,0,0,1,1.358.387L1.223.023a.035.035,0,0,0-.065,0L1.024.387a1.074,1.074,0,0,1-.636.636l-.364.134a.035.035,0,0,0,0,.065l.364.134a1.075,1.075,0,0,1,.636.636l.134.364a.035.035,0,0,0,.065,0l.134-.364a1.074,1.074,0,0,1,.636-.636l.364-.134a.035.035,0,0,0,0-.065Z" transform="translate(0 7.137)" fill="#fff"/>
      </g>
    </g>
  </g>
</svg>
