<svg id="password-icon" xmlns="http://www.w3.org/2000/svg" width="13.111" height="13.111" viewBox="0 0 13.111 13.111">
  <g id="Group_357" data-name="Group 357">
    <path id="Path_204" data-name="Path 204" d="M171,241v3.073h4.353V241Zm2.561,1.921a.384.384,0,0,1-.768,0v-.768a.384.384,0,1,1,.768,0Z" transform="translate(-166.621 -234.829)" fill="#5222d0"/>
    <path id="Path_205" data-name="Path 205" d="M6.555,0a6.555,6.555,0,1,0,6.555,6.555A6.563,6.563,0,0,0,6.555,0ZM9.5,9.628a.384.384,0,0,1-.384.384H3.995a.384.384,0,0,1-.384-.384V5.787A.384.384,0,0,1,3.995,5.4h.128V5.019a2.433,2.433,0,1,1,4.865,0V5.4h.128a.384.384,0,0,1,.384.384Z" fill="#5222d0"/>
    <path id="Path_206" data-name="Path 206" d="M194.329,132.664a1.664,1.664,0,1,0-3.329,0v.384h3.329Z" transform="translate(-186.109 -127.645)" fill="#5222d0"/>
  </g>
</svg>
